<svg xmlns="http://www.w3.org/2000/svg" data-name="Layer 1" viewBox="10 0 80 100" x="0px" y="0px"><title>12</title><path d="M33.82,67.1a5.22,5.22,0,0,0-1.3-3.81L20.83,50,32.52,36.71a5.25,5.25,0,0,0-7.89-6.94L9.89,46.53a5.26,5.26,0,0,0,0,6.94L24.63,70.23a5.25,5.25,0,0,0,9.19-3.13Z"/><path d="M90.11,46.53,75.37,29.77a5.25,5.25,0,1,0-7.89,6.94L79.17,50,67.48,63.29a5.25,5.25,0,1,0,7.89,6.94L90.11,53.47A5.26,5.26,0,0,0,90.11,46.53Z"/><path d="M67.57,12.34a5.25,5.25,0,0,0-7,2.54L29.89,80.68a5.26,5.26,0,0,0,4.76,7.48,5.27,5.27,0,0,0,4.76-3l30.71-65.8A5.26,5.26,0,0,0,67.57,12.34Z"/></svg>