<svg xmlns="http://www.w3.org/2000/svg" data-name="Layer 1" viewBox="20 20 60 60" x="0px" y="0px"><title>universal lanjutan jadi</title><path d="M69.7,51.52s3.55,3.37,1.2,17.57c-.2,1.15,3.85,3.05,4.23-.32,1.74-15.22-1.25-19.59-1.25-19.59Z"/><path d="M29.91,56.13c1.39,5.64,3.16,8.1,9.07,10.69s8.71,5.4,11,5.4,4.94-2.47,10.85-5.05,4.33-3.37,5.72-9L50,66.22Z"/><path d="M78.54,42.59l-25-14a8.12,8.12,0,0,0-7.12,0l-25,14c-2,1.1-2,2.89,0,4l25,14a8.12,8.12,0,0,0,7.12,0l16.15-9L52.2,47.42a9.27,9.27,0,0,1-2.19.26c-3.16,0-5.71-1.52-5.71-3.39s2.56-3.4,5.71-3.4c2.45,0,4.53.92,5.34,2.2l18.55,6.09,4.65-2.6C80.49,45.48,80.49,43.69,78.54,42.59Z"/></svg>