<svg xmlns="http://www.w3.org/2000/svg" xmlns:xlink="http://www.w3.org/1999/xlink" version="1.1" x="0px" y="0px" viewBox="0 0 33 41.25" enable-background="new 0 0 33 33" xml:space="preserve"><path d="M22.852,17.725c-0.821-0.821-2.106-0.89-3.008-0.21L11.1,8.771L9.907,4.348C9.851,4.141,9.65,3.89,9.46,3.789L4.315,1.065  c-0.189-0.101-0.469-0.059-0.62,0.093L1.158,3.695C1.006,3.847,0.964,4.126,1.065,4.316L3.789,9.46  c0.101,0.19,0.352,0.391,0.559,0.446l4.423,1.194l8.743,8.743c-0.679,0.901-0.61,2.188,0.21,3.008l8.464,8.464  c0.899,0.899,2.356,0.899,3.255,0l1.872-1.872c0.899-0.898,0.899-2.355,0-3.255L22.852,17.725z"/><path d="M20.174,15.64c0.342-0.097,0.697-0.147,1.054-0.147c0.125,0,0.249,0.007,0.371,0.019l4.009-4.009  c1.828,0.44,3.835-0.046,5.262-1.473c1.422-1.423,1.911-3.42,1.478-5.243l-3.025,3.025l-3.261-0.874l-0.873-3.26l3.025-3.025  c-1.824-0.433-3.821,0.056-5.243,1.479c-1.427,1.427-1.914,3.433-1.473,5.262l-4.785,4.785L20.174,15.64z"/><path d="M12.178,16.713l-4.785,4.785c-1.828-0.441-3.835,0.046-5.262,1.473c-1.422,1.423-1.911,3.42-1.478,5.243l3.025-3.025  l3.261,0.874l0.873,3.26l-3.025,3.025c1.824,0.433,3.821-0.056,5.243-1.479c1.427-1.427,1.914-3.433,1.473-5.262l4.017-4.018  c-0.044-0.473-0.008-0.952,0.121-1.414L12.178,16.713z"/></svg>